<svg xmlns="http://www.w3.org/2000/svg" viewBox="0 0 400 280" fill="none">
  <defs>
    <linearGradient id="sol" x1="0%" y1="0%" x2="100%" y2="100%">
      <stop offset="0%" stop-color="#ffb347"/>
      <stop offset="100%" stop-color="#2effb0"/>
    </linearGradient>
  </defs>
  <rect width="400" height="280" rx="16" fill="#080a12"/>
  <circle cx="300" cy="70" r="35" fill="url(#sol)" opacity="0.25"/>
  <circle cx="300" cy="70" r="22" fill="#ffb347" opacity="0.9"/>
  <g transform="translate(80, 120)">
    <rect x="0" y="0" width="90" height="55" rx="4" fill="#0d1117" stroke="#2effb0" stroke-width="1.5" transform="skewY(-8)"/>
    <line x1="0" y1="18" x2="90" y2="10" stroke="#2effb0" stroke-width="0.8" opacity="0.5" transform="skewY(-8)"/>
    <line x1="0" y1="36" x2="90" y2="28" stroke="#2effb0" stroke-width="0.8" opacity="0.5" transform="skewY(-8)"/>
    <rect x="110" y="-10" width="90" height="55" rx="4" fill="#0d1117" stroke="#2effb0" stroke-width="1.5" transform="skewY(-8)"/>
    <rect x="220" y="-20" width="90" height="55" rx="4" fill="#0d1117" stroke="#2effb0" stroke-width="1.5" transform="skewY(-8)"/>
  </g>
  <rect x="140" y="200" width="120" height="40" rx="6" fill="#0d1117" stroke="url(#sol)" stroke-width="1.5"/>
  <rect x="155" y="210" width="20" height="20" rx="2" fill="#2effb0" opacity="0.6"/>
  <rect x="185" y="210" width="20" height="20" rx="2" fill="#2effb0" opacity="0.8"/>
  <rect x="215" y="210" width="20" height="20" rx="2" fill="#ffb347" opacity="0.7"/>
</svg>
